<svg xmlns="http://www.w3.org/2000/svg" viewBox="0 0 32 32">

  <!-- sfondo cerchio -->
  <circle cx="16" cy="16" r="16" fill="#EFF4FF"/>

  <!-- maglione verde scuro -->
  <path d="M4 32 Q4 22 10 20 L16 23 L22 20 Q28 22 28 32Z" fill="#2D5A52"/>

  <!-- colletto bianco -->
  <path d="M13 21 L16 24 L19 21 L18 19 L16 20.5 L14 19Z" fill="#F0EDE8"/>

  <!-- collo -->
  <rect x="13.5" y="17" width="5" height="5" rx="2" fill="#D4A882"/>

  <!-- testa -->
  <ellipse cx="16" cy="13" rx="7" ry="7.5" fill="#D4A882"/>

  <!-- capelli — massa scura -->
  <path d="M9 11 Q9 4 16 4 Q23 4 23 11 Q22 7 16 7 Q10 7 9 11Z" fill="#2C1A0E"/>

  <!-- ciuffo in avanti caratteristico -->
  <path d="M12 7 Q14 4.5 17 5 Q20 5.5 21 8 Q18 6 16 6.5 Q13.5 7 12 7Z" fill="#2C1A0E"/>
  <path d="M13 6.5 Q15 5 17 5.5 L16 7 Q14.5 6.5 13 6.5Z" fill="#3D2510"/>

  <!-- sopracciglia -->
  <path d="M12 11.5 Q13.5 10.8 14.5 11.2" stroke="#2C1A0E" stroke-width="0.9" fill="none" stroke-linecap="round"/>
  <path d="M17.5 11.2 Q18.5 10.8 20 11.5" stroke="#2C1A0E" stroke-width="0.9" fill="none" stroke-linecap="round"/>

  <!-- occhi -->
  <ellipse cx="13.8" cy="13" rx="1.2" ry="1.1" fill="#4A2E1A"/>
  <ellipse cx="18.2" cy="13" rx="1.2" ry="1.1" fill="#4A2E1A"/>
  <!-- lucine occhi -->
  <circle cx="14.2" cy="12.6" r="0.3" fill="white" opacity=".7"/>
  <circle cx="18.6" cy="12.6" r="0.3" fill="white" opacity=".7"/>

  <!-- naso -->
  <path d="M16 14 Q15.2 16 15.5 16.5 Q16 17 16.5 16.5 Q16.8 16 16 14Z" fill="#C4987A" opacity=".7"/>

  <!-- barba corta — mascella e mento -->
  <path d="M10.5 17 Q10 19.5 13 21 Q16 22 19 21 Q22 19.5 21.5 17 Q20 18.5 16 18.5 Q12 18.5 10.5 17Z" fill="#3D2510" opacity=".55"/>

  <!-- baffi leggeri -->
  <path d="M13.5 16.8 Q15 17.3 16 17.2 Q17 17.3 18.5 16.8" stroke="#3D2510" stroke-width="0.5" fill="none" opacity=".6" stroke-linecap="round"/>

</svg>
